<svg width="24" height="25" viewBox="0 0 24 25" fill="none" xmlns="http://www.w3.org/2000/svg">
<path d="M22.5 12.5C22.5 18.296 17.8012 23 12 23C6.19875 23 1.5 18.296 1.5 12.5C1.5 6.69875 6.19875 2 12 2C17.8012 2 22.5 6.69875 22.5 12.5Z" fill="#333333"/>
<path d="M16.9216 9.84304C16.8643 9.87646 15.5003 10.5819 15.5003 12.1459C15.5646 13.9296 17.2216 14.5551 17.25 14.5551C17.2216 14.5885 16.9998 15.4072 16.343 16.2654C15.8217 17.0047 15.2432 17.75 14.3646 17.75C13.5289 17.75 13.2289 17.2573 12.2646 17.2573C11.229 17.2573 10.936 17.75 10.1431 17.75C9.26458 17.75 8.64315 16.9647 8.09345 16.2324C7.37932 15.2739 6.77233 13.7698 6.7509 12.3256C6.73646 11.5603 6.89392 10.808 7.29361 10.169C7.85774 9.27699 8.86489 8.67143 9.96473 8.65146C10.8074 8.62498 11.5574 9.1906 12.0717 9.1906C12.5646 9.1906 13.486 8.65146 14.5286 8.65146C14.9786 8.6519 16.1786 8.77822 16.9216 9.84304ZM12.0005 8.49866C11.8505 7.79978 12.2646 7.10089 12.6503 6.65508C13.1432 6.11594 13.9216 5.75 14.5929 5.75C14.6357 6.44889 14.3641 7.13432 13.8787 7.63352C13.4432 8.17266 12.6932 8.57853 12.0005 8.49866Z" fill="white"/>
</svg>
