<svg width="23" height="24" viewBox="0 0 23 24" fill="none" xmlns="http://www.w3.org/2000/svg">
<path d="M2.875 6.25C2.875 4.89492 2.875 4.21738 3.29667 3.79667C3.71642 3.375 4.39396 3.375 5.75 3.375C7.10604 3.375 7.78263 3.375 8.20333 3.79667C8.625 4.21642 8.625 4.89396 8.625 6.25C8.625 7.60604 8.625 8.28263 8.20333 8.70333C7.78358 9.125 7.10604 9.125 5.75 9.125C4.39396 9.125 3.71738 9.125 3.29667 8.70333C2.875 8.28358 2.875 7.60604 2.875 6.25ZM2.875 17.75C2.875 16.3949 2.875 15.7174 3.29667 15.2967C3.71642 14.875 4.39396 14.875 5.75 14.875C7.10604 14.875 7.78263 14.875 8.20333 15.2967C8.625 15.7164 8.625 16.394 8.625 17.75C8.625 19.106 8.625 19.7826 8.20333 20.2033C7.78358 20.625 7.10604 20.625 5.75 20.625C4.39396 20.625 3.71738 20.625 3.29667 20.2033C2.875 19.7836 2.875 19.106 2.875 17.75Z" stroke="#949494" stroke-width="1.5"/>
<path d="M2.875 12H8.625M11.5 3.375V8.16667" stroke="#949494" stroke-width="1.5" stroke-linecap="round" stroke-linejoin="round"/>
<path d="M14.375 6.25C14.375 4.89492 14.375 4.21738 14.7967 3.79667C15.2164 3.375 15.894 3.375 17.25 3.375C18.606 3.375 19.2826 3.375 19.7033 3.79667C20.125 4.21642 20.125 4.89396 20.125 6.25C20.125 7.60604 20.125 8.28263 19.7033 8.70333C19.2836 9.125 18.606 9.125 17.25 9.125C15.894 9.125 15.2174 9.125 14.7967 8.70333C14.375 8.28358 14.375 7.60604 14.375 6.25Z" stroke="#949494" stroke-width="1.5"/>
<path d="M20.125 12H14.375C13.0199 12 12.3424 12 11.9217 12.4217C11.5 12.8414 11.5 13.519 11.5 14.875M11.5 17.5296V20.1822M14.375 14.875V16.3125C14.375 17.6982 15.1263 17.75 16.2917 17.75C16.5458 17.75 16.7896 17.851 16.9693 18.0307C17.149 18.2104 17.25 18.4542 17.25 18.7083M15.3333 20.625H14.375M17.25 14.875C18.6051 14.875 19.2826 14.875 19.7033 15.2967C20.124 15.7183 20.125 16.3968 20.125 17.7538C20.125 19.1108 20.125 19.7903 19.7033 20.212C19.3967 20.5186 18.953 20.603 18.2083 20.625" stroke="#949494" stroke-width="1.5" stroke-linecap="round"/>
</svg>
