<svg width="24" height="23" viewBox="0 0 24 23" fill="none" xmlns="http://www.w3.org/2000/svg">
<path fill-rule="evenodd" clip-rule="evenodd" d="M17.8834 0.0784555C16.923 -1.106e-05 15.7281 0 14.204 0H9.68492C8.16079 0 6.96587 -1.106e-05 6.00548 0.0784555C5.02754 0.158355 4.21965 0.323755 3.48839 0.696344C2.28624 1.30887 1.30887 2.28624 0.696344 3.48839C0.323755 4.21965 0.158355 5.02755 0.0784555 6.00548C-1.106e-05 6.96587 0 8.16079 0 9.68493V14.4203C0 17.1951 2.24934 19.4444 5.02406 19.4444H5.69267C5.96878 19.4444 6.15758 19.7233 6.05504 19.9797C5.29208 21.8871 7.48877 23.6114 9.16045 22.4174L12.0612 20.3454L12.1159 20.3065C12.9035 19.7515 13.8421 19.4506 14.8057 19.4445L14.8727 19.4444H15.6457C17.3663 19.4447 18.416 19.4449 19.2976 19.1863C21.3856 18.5741 23.0185 16.9412 23.6308 14.8532C23.8893 13.9715 23.8891 12.922 23.8889 11.2013V9.6849C23.8889 8.1608 23.8889 6.96585 23.8104 6.00548C23.7305 5.02754 23.5651 4.21965 23.1925 3.48839C22.58 2.28624 21.6026 1.30887 20.4004 0.696344C19.6692 0.323755 18.8613 0.158355 17.8834 0.0784555ZM4.24504 2.18135C4.70218 1.94843 5.26633 1.81107 6.14119 1.73959C7.02579 1.66731 8.15276 1.66667 9.72221 1.66667H14.1667C15.7361 1.66667 16.8631 1.66731 17.7476 1.73959C18.6225 1.81107 19.1866 1.94843 19.6439 2.18135C20.5323 2.63409 21.2548 3.3565 21.7075 4.24504C21.9404 4.70219 22.0778 5.26633 22.1493 6.1412C22.2215 7.02579 22.2222 8.15276 22.2222 9.72221V11.038C22.2222 12.9734 22.2138 13.7625 22.0314 14.3842C21.5789 15.9275 20.372 17.1344 18.8286 17.587C18.207 17.7693 17.4179 17.7778 15.4824 17.7778H14.8727L14.795 17.7779C13.4913 17.7862 12.2214 18.1932 11.1558 18.9441L8.19171 21.0612C7.87454 21.2878 7.45774 20.9605 7.6025 20.5986C8.14296 19.2475 7.14789 17.7778 5.69267 17.7778H5.02406C3.16982 17.7778 1.66666 16.2747 1.66666 14.4203V9.72221C1.66666 8.15276 1.66731 7.02579 1.73959 6.1412C1.81106 5.26633 1.94843 4.70219 2.18135 4.24504C2.63409 3.3565 3.3565 2.63409 4.24504 2.18135Z" fill="currentColor"/>
<path d="M8.61114 9.72219C8.61114 10.3359 8.11367 10.8333 7.50003 10.8333C6.88638 10.8333 6.38892 10.3359 6.38892 9.72219C6.38892 9.10855 6.88638 8.61108 7.50003 8.61108C8.11367 8.61108 8.61114 9.10855 8.61114 9.72219Z" fill="currentColor"/>
<path d="M13.0556 9.72219C13.0556 10.3359 12.5582 10.8333 11.9445 10.8333C11.3308 10.8333 10.8334 10.3359 10.8334 9.72219C10.8334 9.10855 11.3308 8.61108 11.9445 8.61108C12.5582 8.61108 13.0556 9.10855 13.0556 9.72219Z" fill="currentColor"/>
<path d="M17.4999 9.72219C17.4999 10.3359 17.0025 10.8333 16.3888 10.8333C15.7752 10.8333 15.2777 10.3359 15.2777 9.72219C15.2777 9.10855 15.7752 8.61108 16.3888 8.61108C17.0025 8.61108 17.4999 9.10855 17.4999 9.72219Z" fill="currentColor"/>
</svg>
