<svg width="78" height="77" viewBox="0 0 78 77" fill="none" xmlns="http://www.w3.org/2000/svg">
<g clip-path="url(#clip0_54617_73296)">
<rect x="0.5" width="77" height="77" rx="38.5" fill="white"/>
<g clip-path="url(#clip1_54617_73296)">
<path d="M23.4269 44.3642L21.4776 51.6411L14.353 51.7918C12.2238 47.8426 11.0161 43.3243 11.0161 38.5227C11.0161 33.8796 12.1453 29.5011 14.1469 25.6458H14.1484L20.4913 26.8086L23.2698 33.1134C22.6883 34.8089 22.3713 36.6289 22.3713 38.5227C22.3715 40.5781 22.7438 42.5474 23.4269 44.3642Z" fill="#FBBB00"/>
<path d="M66.5268 33.292C66.8484 34.9858 67.016 36.735 67.016 38.5227C67.016 40.5274 66.8053 42.4828 66.4037 44.3689C65.0407 50.7874 61.4791 56.392 56.5453 60.3581L56.5438 60.3566L48.5546 59.949L47.4239 52.8905C50.6977 50.9705 53.2562 47.9659 54.6039 44.3689H39.6316V33.292H54.8224H66.5268Z" fill="#518EF8"/>
<path d="M56.5438 60.3565L56.5453 60.3581C51.7469 64.2149 45.6514 66.5226 39.0161 66.5226C28.353 66.5226 19.0823 60.5627 14.353 51.7919L23.4269 44.3643C25.7915 50.675 31.8792 55.1673 39.0161 55.1673C42.0837 55.1673 44.9577 54.3381 47.4238 52.8904L56.5438 60.3565Z" fill="#28B446"/>
<path d="M56.8885 16.9688L47.8177 24.395C45.2655 22.7996 42.2485 21.878 39.0162 21.878C31.7177 21.878 25.5162 26.5764 23.2701 33.1135L14.1485 25.6458H14.147C18.807 16.6612 28.1947 10.5227 39.0162 10.5227C45.8101 10.5227 52.0393 12.9427 56.8885 16.9688Z" fill="#F14336"/>
</g>
</g>
<defs>
<clipPath id="clip0_54617_73296">
<rect x="0.5" width="77" height="77" rx="38.5" fill="white"/>
</clipPath>
<clipPath id="clip1_54617_73296">
<rect width="56" height="56" fill="white" transform="translate(11.0161 10.5227)"/>
</clipPath>
</defs>
</svg>
