<svg width="17" height="17" viewBox="0 0 17 17" fill="none" xmlns="http://www.w3.org/2000/svg">
<path fill-rule="evenodd" clip-rule="evenodd" d="M4.94545 5.61252C4.94545 5.15392 5.0374 4.69982 5.21603 4.27613C5.39466 3.85244 5.65649 3.46747 5.98656 3.14319C6.31663 2.81891 6.70848 2.56168 7.13973 2.38619C7.57099 2.21069 8.03321 2.12036 8.5 2.12036C8.96679 2.12036 9.42901 2.21069 9.86027 2.38619C10.2915 2.56168 10.6834 2.81891 11.0134 3.14319C11.3435 3.46747 11.6053 3.85244 11.784 4.27613C11.9626 4.69982 12.0545 5.15392 12.0545 5.61252V12.9005C12.0545 13.4593 11.7764 13.9524 11.3473 14.2561C11.0358 13.8917 10.5684 13.6597 10.0455 13.6597H6.95455C6.50368 13.6597 6.07128 13.8356 5.75246 14.1489C5.43365 14.4621 5.25455 14.8869 5.25455 15.3298C5.25455 15.7728 5.43365 16.1976 5.75246 16.5108C6.07128 16.824 6.50368 17 6.95455 17H10.0455C10.812 17 11.4611 16.5008 11.6725 15.8145C12.2458 15.5634 12.7328 15.1546 13.0749 14.6375C13.4169 14.1205 13.5993 13.5172 13.6 12.9005V11.6858H14.9909C16.1012 11.6858 17 10.8016 17 9.71201V7.28269C17 6.19313 16.1012 5.30886 14.9909 5.30886H14.2095C14.1291 3.87458 13.4925 2.52505 12.4306 1.53765C11.3687 0.550249 9.96211 0 8.5 0C7.03789 0 5.63132 0.550249 4.5694 1.53765C3.50747 2.52505 2.87089 3.87458 2.79047 5.30886H2.00909C0.900073 5.30886 0 6.19313 0 7.28269V9.71201C0 10.8016 0.900073 11.6858 2.00909 11.6858H4.17273C4.59927 11.6858 4.94545 11.3457 4.94545 10.9267V5.61252ZM1.54545 7.28269C1.54545 7.03125 1.75316 6.82719 2.00909 6.82719H3.4V10.1675H2.00909C1.88613 10.1675 1.7682 10.1195 1.68125 10.0341C1.5943 9.94868 1.54545 9.83282 1.54545 9.71201V7.28269ZM13.6 10.1675V6.82719H14.9909C15.2468 6.82719 15.4545 7.03125 15.4545 7.28269V9.71201C15.4545 9.83282 15.4057 9.94868 15.3188 10.0341C15.2318 10.1195 15.1139 10.1675 14.9909 10.1675H13.6Z" fill="#949494"/>
</svg>
