<svg width="23" height="23" viewBox="0 0 23 23" fill="none" xmlns="http://www.w3.org/2000/svg">
<path fill-rule="evenodd" clip-rule="evenodd" d="M13.4323 3.4997C12.2904 2.50011 10.7096 2.50011 9.56784 3.4997L3.8451 8.5096C3.32327 8.96644 3 9.68821 3 10.4746V18.2873C3 19.7132 4.01165 20.75 5.125 20.75H7.25V17.0913C7.25 14.5543 9.09253 12.3785 11.5 12.3785C13.9075 12.3785 15.75 14.5543 15.75 17.0913V20.75H17.875C18.9884 20.75 20 19.7132 20 18.2873V10.4746C20 9.68821 19.6768 8.96644 19.1549 8.50961L13.4323 3.4997ZM14.7863 1.76565L20.5089 6.77556C21.54 7.67817 22.125 9.04668 22.125 10.4746V18.2873C22.125 20.8243 20.2825 23 17.875 23H15.75C14.5764 23 13.625 21.9927 13.625 20.75V17.0913C13.625 15.6653 12.6134 14.6285 11.5 14.6285C10.3866 14.6285 9.375 15.6653 9.375 17.0913V20.75C9.375 21.9927 8.42361 23 7.25 23H5.125C2.71753 23 0.875 20.8243 0.875 18.2873V10.4746C0.875 9.04668 1.46 7.67817 2.49103 6.77556L8.21372 1.76565C10.1414 0.0781166 12.8586 0.0781166 14.7863 1.76565Z" fill="currentColor"/>
</svg>
