<svg width="24" height="24" viewBox="0 0 24 24" fill="none" xmlns="http://www.w3.org/2000/svg">
<g clip-path="url(#clip0_54617_72322)">
<path d="M18.2222 0H5.77778C2.5868 0 0 2.5868 0 5.77778V18.2222C0 21.4132 2.5868 24 5.77778 24H18.2222C21.4132 24 24 21.4132 24 18.2222V5.77778C24 2.5868 21.4132 0 18.2222 0Z" fill="#AB9FF2"/>
<path fill-rule="evenodd" clip-rule="evenodd" d="M10.3393 15.5384C9.33457 17.0779 7.65097 19.0262 5.41071 19.0262C4.35169 19.0262 3.33337 18.5902 3.33337 16.6964C3.33337 11.8734 9.9184 4.40723 16.0282 4.40723C19.504 4.40723 20.8889 6.81876 20.8889 9.55727C20.8889 13.0724 18.6079 17.0916 16.3405 17.0916C15.6209 17.0916 15.2679 16.6964 15.2679 16.0697C15.2679 15.9062 15.295 15.7291 15.3494 15.5384C14.5754 16.8599 13.0819 18.0861 11.6835 18.0861C10.6652 18.0861 10.1492 17.4458 10.1492 16.5466C10.1492 16.2196 10.2171 15.879 10.3393 15.5384ZM18.5947 9.46205C18.5947 10.26 18.1239 10.659 17.5973 10.659C17.0626 10.659 16.5998 10.26 16.5998 9.46205C16.5998 8.66407 17.0626 8.26509 17.5973 8.26509C18.1239 8.26509 18.5947 8.66407 18.5947 9.46205ZM15.6023 9.46207C15.6023 10.26 15.1315 10.659 14.6048 10.659C14.0702 10.659 13.6074 10.26 13.6074 9.46207C13.6074 8.66407 14.0702 8.26509 14.6048 8.26509C15.1315 8.26509 15.6023 8.66407 15.6023 9.46207Z" fill="#FFFDF8"/>
</g>
<defs>
<clipPath id="clip0_54617_72322">
<rect width="24" height="24" fill="white"/>
</clipPath>
</defs>
</svg>
