<svg width="26" height="26" viewBox="0 0 26 26" fill="none" xmlns="http://www.w3.org/2000/svg">
<path d="M13.4958 13.8332C12.5069 13.8332 11.5402 13.54 10.718 12.9906C9.89575 12.4412 9.25489 11.6603 8.87645 10.7467C8.49802 9.83304 8.399 8.8277 8.59193 7.8578C8.78485 6.8879 9.26105 5.99698 9.96032 5.29772C10.6596 4.59846 11.5505 4.12225 12.5204 3.92933C13.4903 3.7364 14.4956 3.83542 15.4093 4.21386C16.3229 4.59229 17.1038 5.23316 17.6532 6.0554C18.2026 6.87765 18.4958 7.84434 18.4958 8.83325C18.4958 10.1593 17.9691 11.4311 17.0314 12.3688C16.0937 13.3065 14.8219 13.8332 13.4958 13.8332ZM13.4958 5.49992C12.8366 5.49992 12.1921 5.69542 11.6439 6.06169C11.0958 6.42796 10.6685 6.94855 10.4163 7.55764C10.164 8.16673 10.0979 8.83695 10.2266 9.48355C10.3552 10.1302 10.6727 10.7241 11.1388 11.1903C11.605 11.6564 12.1989 11.9739 12.8455 12.1025C13.4921 12.2311 14.1624 12.1651 14.7715 11.9128C15.3805 11.6606 15.9011 11.2333 16.2674 10.6851C16.6337 10.137 16.8292 9.49252 16.8292 8.83325C16.8292 7.9492 16.478 7.10135 15.8529 6.47623C15.2277 5.85111 14.3799 5.49992 13.4958 5.49992Z" fill="currentColor"/>
<path d="M13.496 25.4999C11.648 25.4987 9.82329 25.0877 8.15321 24.2967C6.48314 23.5056 5.00924 22.354 3.83763 20.9249L3.4043 20.3916L3.83763 19.8666C5.01023 18.4394 6.48456 17.2898 8.15458 16.5004C9.8246 15.7111 11.6488 15.3018 13.496 15.3018C15.3431 15.3018 17.1673 15.7111 18.8373 16.5004C20.5073 17.2898 21.9817 18.4394 23.1543 19.8666L23.5876 20.3916L23.1543 20.9249C21.9827 22.354 20.5088 23.5056 18.8387 24.2967C17.1686 25.0877 15.3439 25.4987 13.496 25.4999ZM5.58763 20.3999C6.60116 21.4849 7.8269 22.35 9.18876 22.9415C10.5506 23.533 12.0195 23.8382 13.5043 23.8382C14.989 23.8382 16.4579 23.533 17.8198 22.9415C19.1817 22.35 20.4074 21.4849 21.4209 20.3999C20.4074 19.3149 19.1817 18.4498 17.8198 17.8584C16.4579 17.2669 14.989 16.9617 13.5043 16.9617C12.0195 16.9617 10.5506 17.2669 9.18876 17.8584C7.8269 18.4498 6.60116 19.3149 5.58763 20.3999Z" fill="currentColor"/>
<path d="M13.4959 25.5C10.6565 25.5019 7.90108 24.537 5.68313 22.7643C3.46517 20.9915 1.91685 18.5164 1.29301 15.7464C0.669157 12.9764 1.00695 10.0766 2.2508 7.52413C3.49465 4.97169 5.57042 2.91879 8.13648 1.70329C10.7025 0.487788 13.6059 0.182131 16.3689 0.836623C19.1318 1.49111 21.5895 3.06675 23.3377 5.30421C25.0858 7.54167 26.02 10.3076 25.9867 13.1468C25.9533 15.986 24.9544 18.7292 23.1542 20.925C21.9826 22.3541 20.5087 23.5056 18.8386 24.2967C17.1685 25.0878 15.3438 25.4988 13.4959 25.5ZM13.4959 2.16667C11.3533 2.16667 9.25874 2.80204 7.47721 3.99242C5.69568 5.1828 4.30715 6.87473 3.4872 8.85426C2.66725 10.8338 2.45271 13.012 2.87072 15.1135C3.28872 17.2149 4.3205 19.1452 5.83557 20.6603C7.35063 22.1754 9.28095 23.2072 11.3824 23.6252C13.4839 24.0432 15.6621 23.8286 17.6416 23.0087C19.6211 22.1887 21.3131 20.8002 22.5035 19.0187C23.6938 17.2371 24.3292 15.1426 24.3292 13C24.3292 10.1268 23.1878 7.37132 21.1562 5.33968C19.1246 3.30804 16.3691 2.16667 13.4959 2.16667Z" fill="currentColor"/>
<path d="M4.47925 20.3999C4.47925 20.3999 12.8709 29.7749 21.4126 21.3332L22.5126 20.3999C22.5126 20.3999 15.3792 12.9999 8.13758 17.4416L4.47925 20.3999Z" fill="currentColor"/>
<path d="M13.4959 13.0001C15.7971 13.0001 17.6625 11.1346 17.6625 8.83341C17.6625 6.53223 15.7971 4.66675 13.4959 4.66675C11.1947 4.66675 9.32922 6.53223 9.32922 8.83341C9.32922 11.1346 11.1947 13.0001 13.4959 13.0001Z" fill="currentColor"/>
</svg>
