<svg width="21" height="20" viewBox="0 0 21 20" fill="none" xmlns="http://www.w3.org/2000/svg">
<path d="M20.1506 17.9768L16.3068 14.133C17.4718 12.608 18.1107 10.7583 18.1109 8.80638C18.1109 6.45417 17.1948 4.2426 15.5313 2.57935C13.868 0.916114 11.6568 0 9.30426 0C6.95205 0 4.74048 0.916114 3.07723 2.57935C-0.356311 6.01319 -0.356311 11.6002 3.07723 15.0334C4.74048 16.6969 6.95205 17.6131 9.30426 17.6131C11.2561 17.6128 13.1059 16.9739 14.6309 15.809L18.4747 19.6527C18.7059 19.8842 19.0094 20 19.3126 20C19.6159 20 19.9194 19.8842 20.1506 19.6527C20.6136 19.1901 20.6136 18.4395 20.1506 17.9768ZM4.75321 13.3574C2.24388 10.8481 2.24417 6.76495 4.75321 4.25533C5.96881 3.04002 7.58517 2.37044 9.30426 2.37044C11.0236 2.37044 12.6397 3.04002 13.8553 4.25533C15.0709 5.47093 15.7405 7.08729 15.7405 8.80638C15.7405 10.5258 15.0709 12.1418 13.8553 13.3574C12.6397 14.573 11.0236 15.2426 9.30426 15.2426C7.58517 15.2426 5.96881 14.573 4.75321 13.3574Z" fill="currentColor"/>
</svg>
