<svg width="78" height="77" viewBox="0 0 78 77" fill="none" xmlns="http://www.w3.org/2000/svg">
<g clip-path="url(#clip0_54617_74067)">
<rect x="0.5" width="77" height="77" rx="38.5" fill="white"/>
<path fill-rule="evenodd" clip-rule="evenodd" d="M39.0161 -0.415039C60.5171 -0.415039 77.9538 17.0218 77.9538 38.5227C77.9538 60.0236 60.5171 77.4604 39.0161 77.4604C17.5152 77.4604 0.0783691 60.0236 0.0783691 38.5227C0.0783691 17.0218 17.5152 -0.415039 39.0161 -0.415039ZM30.9302 51.17L21.3973 41.6292C19.7732 40.0041 19.7729 37.3541 21.3973 35.7294C23.022 34.105 25.6838 34.1152 27.2967 35.7294L34.0174 42.4553L50.7361 25.7366C52.3608 24.1119 55.0111 24.1119 56.6355 25.7366C58.2603 27.3611 58.2579 30.0136 56.6355 31.6361L36.9623 51.3093C35.3399 52.9317 32.6873 52.934 31.0629 51.3093C31.0172 51.2636 30.9732 51.2173 30.9302 51.17Z" fill="#00E98C"/>
</g>
<defs>
<clipPath id="clip0_54617_74067">
<rect x="0.5" width="77" height="77" rx="38.5" fill="white"/>
</clipPath>
</defs>
</svg>
