<svg width="14" height="14" viewBox="0 0 14 14" fill="none" xmlns="http://www.w3.org/2000/svg">
<path d="M9 4.84995C9 4.84995 8.325 4.62495 7.9 5.17495C7.4 5.79995 7.525 7.04995 8.45 6.97495C9.375 6.89995 10.15 7.12495 10.575 7.57495C11.175 8.17495 12.2 7.39995 12 6.37495C11.875 5.72495 11.275 5.59995 11.275 5.59995C11.275 5.59995 11.45 4.44995 10.5 4.14995C9.7 3.89995 9 4.84995 9 4.84995Z" stroke="white" stroke-miterlimit="10" stroke-linecap="round" stroke-linejoin="round"/>
<path d="M9.99212 2.92425C10.3917 2.94707 10.7393 2.55226 10.7684 2.04242C10.7975 1.53258 10.4972 1.10077 10.0976 1.07795C9.69797 1.05512 9.35042 1.44993 9.3213 1.95977C9.29218 2.46961 9.59252 2.90142 9.99212 2.92425Z" stroke="white" stroke-width="0.5" stroke-miterlimit="10" stroke-linecap="round" stroke-linejoin="round"/>
<path d="M11.7545 3.38192C12.09 3.60014 12.5816 3.43938 12.8525 3.02284C13.1234 2.60631 13.071 2.09174 12.7355 1.87352C12.3999 1.6553 11.9083 1.81606 11.6374 2.23259C11.3665 2.64913 11.4189 3.1637 11.7545 3.38192Z" stroke="white" stroke-width="0.5" stroke-miterlimit="10" stroke-linecap="round" stroke-linejoin="round"/>
<path d="M12.6076 5.21002C12.8524 5.41229 13.2576 5.32602 13.5127 5.01734C13.7677 4.70866 13.776 4.29446 13.5312 4.09219C13.2864 3.88992 12.8811 3.97619 12.6261 4.28487C12.3711 4.59355 12.3628 5.00775 12.6076 5.21002Z" stroke="white" stroke-width="0.5" stroke-miterlimit="10" stroke-linecap="round" stroke-linejoin="round"/>
<path d="M8.12128 3.9529C8.43884 3.95385 8.69729 3.61884 8.69853 3.20462C8.69977 2.79041 8.44334 2.45385 8.12578 2.4529C7.80822 2.45194 7.54977 2.78696 7.54853 3.20117C7.54729 3.61539 7.80372 3.95194 8.12128 3.9529Z" stroke="white" stroke-width="0.5" stroke-miterlimit="10" stroke-linecap="round" stroke-linejoin="round"/>
<path d="M5.00008 9.97502C5.00008 9.97502 5.67508 9.75002 6.10008 10.3C6.60008 10.925 6.47508 12.175 5.55008 12.1C4.62508 12.025 3.85008 12.25 3.42508 12.7C2.82508 13.3 1.80008 12.525 2.00008 11.5C2.12508 10.85 2.72508 10.725 2.72508 10.725C2.72508 10.725 2.55008 9.57502 3.50008 9.27502C4.30008 9.05002 5.00008 9.97502 5.00008 9.97502Z" stroke="white" stroke-miterlimit="10" stroke-linecap="round" stroke-linejoin="round"/>
<path d="M3.88194 6.21785C3.48233 6.24068 3.18199 6.67249 3.21111 7.18233C3.24023 7.69217 3.58778 8.08698 3.98739 8.06415C4.38699 8.04133 4.68733 7.60952 4.65821 7.09968C4.62909 6.58984 4.28154 6.19503 3.88194 6.21785Z" stroke="white" stroke-width="0.5" stroke-miterlimit="10" stroke-linecap="round" stroke-linejoin="round"/>
<path d="M1.27668 6.99512C0.941144 7.21334 0.888739 7.72792 1.15963 8.14445C1.43053 8.56098 1.92214 8.72174 2.25768 8.50352C2.59323 8.2853 2.64563 7.77073 2.37473 7.3542C2.10384 6.93767 1.61222 6.7769 1.27668 6.99512Z" stroke="white" stroke-width="0.5" stroke-miterlimit="10" stroke-linecap="round" stroke-linejoin="round"/>
<path d="M0.453481 9.24706C0.208665 9.44933 0.216947 9.86353 0.471979 10.1722C0.727012 10.4809 1.13222 10.5672 1.37703 10.3649C1.62185 10.1626 1.61357 9.74842 1.35854 9.43974C1.1035 9.13106 0.698297 9.04479 0.453481 9.24706Z" stroke="white" stroke-width="0.5" stroke-miterlimit="10" stroke-linecap="round" stroke-linejoin="round"/>
<path d="M5.89218 7.59657C5.57462 7.59753 5.31819 7.93409 5.31943 8.3483C5.32067 8.76251 5.57912 9.09753 5.89668 9.09657C6.21424 9.09562 6.47067 8.75906 6.46943 8.34485C6.46819 7.93064 6.20974 7.59562 5.89218 7.59657Z" stroke="white" stroke-width="0.5" stroke-miterlimit="10" stroke-linecap="round" stroke-linejoin="round"/>
</svg>
