<svg width="33" height="49" viewBox="0 0 33 49" fill="none" xmlns="http://www.w3.org/2000/svg">
<g clip-path="url(#clip0_185_6812)">
<path d="M29.041 8.56745L19.0787 4.26293C18.4225 3.97384 18.1378 3.12994 18.4653 2.38667L18.5277 2.2451C18.8551 1.50183 19.6522 1.13452 20.3162 1.40591L30.2785 5.71043C30.9347 5.99951 31.2193 6.84341 30.8919 7.58668L30.8295 7.72826C30.5021 8.47153 29.7049 8.83883 29.041 8.56745Z" fill="#0B0B0B"/>
<path d="M26.4988 7.47684L21.8564 5.46912L19.6689 10.5278L24.3112 12.5355L26.4988 7.47684Z" fill="#172127"/>
<path d="M26.1796 16.119L15.5788 11.5332C14.8695 11.2206 14.5203 10.4751 14.7854 9.87342L14.8399 9.74954C15.1128 9.13014 15.8986 8.88465 16.5902 9.18936L27.191 13.7751C27.9004 14.0877 28.2496 14.8332 27.9845 15.4349L27.9299 15.5588C27.657 16.1782 26.8712 16.4237 26.1796 16.119Z" fill="#031C2C"/>
<path d="M13.6897 34.3264L9.89463 32.6544C9.55477 32.2722 9.08221 31.6625 8.74434 30.7952C8.36885 29.869 8.28491 29.0501 8.27696 28.5395C10.8173 22.9176 13.3576 17.2957 15.8802 11.666L25.6652 15.8924L18.0563 32.8268C17.6564 33.1577 17.021 33.6386 16.0997 33.9512C15.0941 34.3111 14.2366 34.3349 13.6975 34.3087L13.6897 34.3264Z" fill="white"/>
<path d="M10.0011 32.787L13.6296 34.3563L12.6471 36.6282C12.3862 37.2317 11.6732 37.5133 11.0685 37.2518L9.59214 36.6133C9.00518 36.3595 8.74997 35.6802 8.99559 35.1122L10.0088 32.7693L10.0011 32.787Z" fill="#1D3746"/>
<path d="M9.64746 36.5814L6.52638 45.0116L10.9165 37.1617L9.64746 36.5814Z" fill="#6DA9BF"/>
<path d="M30.1658 9.04203C29.7317 9.21005 29.2636 9.21513 28.838 9.02762L18.8757 4.7231C18.4501 4.53559 18.1301 4.20443 17.9434 3.76294C17.7546 3.27825 17.7601 2.68898 17.9784 2.19347L18.0408 2.05189C18.493 1.02547 19.5787 0.531748 20.5009 0.938027L30.481 5.25036C30.9066 5.43787 31.2266 5.76903 31.4132 6.21052C31.6021 6.69521 31.5966 7.28448 31.3782 7.77999L31.3159 7.92157C31.082 8.45248 30.6764 8.84435 30.1913 9.03214L30.1658 9.04203ZM29.2434 8.10738C29.6513 8.28708 30.1499 8.02069 30.3604 7.54287L30.4227 7.40129C30.5397 7.13584 30.5424 6.8412 30.453 6.61161C30.4033 6.48406 30.2905 6.30757 30.0777 6.21381L20.1154 1.90929C19.7075 1.72959 19.2089 1.99598 18.9984 2.4738L18.936 2.61537C18.8191 2.88083 18.8163 3.17546 18.9058 3.40505C18.9555 3.5326 19.0683 3.7091 19.2811 3.80286L29.2434 8.10738Z" fill="#25E9FF"/>
<path d="M24.5859 13.1983L19.0018 10.7804L21.6016 4.7832L27.1857 7.2011L24.5859 13.1983ZM20.3372 10.2487L24.0436 11.8817L25.8326 7.72495L22.1261 6.09202L20.3372 10.2487Z" fill="#25E9FF"/>
<path d="M13.4336 17.0756L23.2406 21.3962C21.5565 25.2187 19.8469 29.0511 18.1451 32.8659C18.1451 32.8659 16.2419 34.5421 13.6899 34.3264L9.89474 32.6544C9.89474 32.6544 8.32036 30.9887 8.25933 28.5317C9.98667 24.7071 11.714 20.8825 13.4336 17.0756Z" fill="#2CB5E9"/>
<g opacity="0.34">
<path d="M15.7799 11.7488L18.511 12.952L11.1607 29.155C11.1607 29.155 10.5639 30.4136 11.1436 31.2607C11.4048 31.6293 11.7772 31.7934 11.9978 31.8695C13.0675 32.2773 14.3422 32.7967 15.8553 33.3999C16.0737 33.4327 16.3688 33.4359 16.705 33.3938C17.3419 33.2941 17.7971 33.0297 18.0659 32.8523C17.6915 33.1734 17.1051 33.5912 16.3313 33.9055C15.2257 34.3482 14.2306 34.3958 13.6405 34.3894C12.3991 33.8425 11.14 33.2877 9.90639 32.7231C9.54666 32.2899 9.02656 31.5959 8.66452 30.5911C8.38199 29.7904 8.29453 29.0757 8.27878 28.5827C10.7858 22.9884 13.2928 17.3941 15.7998 11.7998L15.7799 11.7488Z" fill="#075D8C"/>
</g>
<path d="M27.4973 16.6363C27.4973 16.6363 27.4207 16.6659 27.3775 16.668C26.9335 16.8105 26.4377 16.7823 25.9766 16.5791L15.3759 11.9933C14.9148 11.7902 14.5515 11.4611 14.3571 11.0373C14.1349 10.5802 14.1114 10.1049 14.3063 9.66251L14.3609 9.53863C14.7429 8.67148 15.8173 8.29957 16.7828 8.70378L27.3835 13.2896C28.3412 13.7115 28.8174 14.7454 28.4453 15.6381L28.3907 15.762C28.2192 16.1513 27.8881 16.4703 27.4796 16.6285L27.4973 16.6363ZM26.382 15.6589C26.6126 15.7605 26.8566 15.7834 27.0608 15.7044C27.2573 15.643 27.3984 15.515 27.4686 15.3557L27.5231 15.2318C27.5933 15.0725 27.5925 14.882 27.5052 14.6956C27.408 14.4837 27.2264 14.3192 26.9958 14.2176L16.3951 9.63183C15.9517 9.4365 15.4468 9.57328 15.3086 9.93503L15.254 10.0589C15.1838 10.2182 15.1846 10.4087 15.2719 10.5951C15.3691 10.807 15.5507 10.9715 15.7813 11.0731L26.382 15.6589Z" fill="#25E9FF"/>
<path d="M16.467 34.3667C16.467 34.3667 16.3393 34.4161 16.2627 34.4458C15.428 34.7543 14.5493 34.8743 13.6542 34.8392L13.4612 34.7964L9.50437 33.0109C8.98074 32.421 8.55711 31.7483 8.25118 31.0007C7.93532 30.2276 7.76485 29.4129 7.73977 28.5566L7.79006 28.3463L15.6138 11.0205L26.3387 15.661L18.3881 33.2267C17.8137 33.7133 17.1819 34.09 16.4847 34.3745L16.467 34.3667ZM13.8035 33.8272C14.5334 33.8529 15.2391 33.7412 15.9206 33.492C16.5433 33.2803 17.1163 32.9411 17.6339 32.5352L24.9855 16.1848L16.1305 12.347L8.77675 28.6542C8.81881 29.3278 8.94739 29.9973 9.20362 30.6173C9.44992 31.2119 9.7806 31.7591 10.2035 32.2412L13.8035 33.8272Z" fill="#25E9FF"/>
<path d="M12.0482 37.428C11.4354 37.6652 10.751 37.6807 10.1126 37.3994C8.88891 36.8603 8.31468 35.4239 8.83491 34.195L9.75491 32.1068L14.3105 34.0716L13.4372 36.0536C13.1743 36.6985 12.6687 37.1731 12.056 37.4103L12.0482 37.428ZM10.5003 36.4714C11.2628 36.8073 12.1642 36.4437 12.4995 35.6827L12.9673 34.6209L10.2639 33.451L9.75709 34.6013C9.44522 35.3092 9.79089 36.1588 10.5003 36.4714Z" fill="#25E9FF"/>
<path d="M6.68558 45.0819L6.3841 44.949L9.55762 36.3518L11.1892 37.0706L6.70331 45.0897L6.68558 45.0819ZM9.73649 36.811L7.43466 43.0451L10.6863 37.2506L9.7287 36.8287L9.73649 36.811Z" fill="#25E9FF"/>
<path d="M22.5548 18.7698C22.5548 18.7698 22.2796 18.8176 22.1555 18.763L20.3799 17.9384C20.1316 17.8291 20.0124 17.5229 20.1293 17.2575C20.2463 16.992 20.5448 16.8911 20.8109 17.0083L22.5864 17.8328C22.8347 17.9422 22.9539 18.2483 22.837 18.5138C22.7824 18.6377 22.6824 18.7204 22.5548 18.7698Z" fill="#231F20"/>
<path d="M20.9181 21.9578C20.9181 21.9578 20.6429 22.0056 20.5187 21.9509L18.7432 21.1264C18.4772 21.0092 18.3757 20.7109 18.4926 20.4455C18.6095 20.18 18.9081 20.0791 19.1741 20.1963L20.9497 21.0208C21.2157 21.138 21.3172 21.4363 21.2003 21.7018C21.1457 21.8257 21.0457 21.9084 20.9181 21.9578Z" fill="#231F20"/>
<path d="M19.3468 25.0906C19.3468 25.0906 19.0716 25.1384 18.9474 25.0838L17.1719 24.2592C16.9059 24.142 16.8044 23.8437 16.9213 23.5783C17.0383 23.3128 17.3368 23.2119 17.6028 23.3291L19.3784 24.1536C19.6444 24.2708 19.7459 24.5691 19.629 24.8346C19.5744 24.9585 19.4744 25.0412 19.3468 25.0906Z" fill="#231F20"/>
<path d="M16.5912 30.8748L18.8971 25.8051C18.9723 25.6398 18.8989 25.4448 18.7333 25.3695L18.3452 25.193C18.1796 25.1177 17.9844 25.1906 17.9092 25.3558L15.6033 30.4255C15.5282 30.5908 15.6015 30.7858 15.7671 30.8611L16.1552 31.0376C16.3208 31.113 16.516 31.04 16.5912 30.8748Z" fill="#55CAF5"/>
</g>
<defs>
<clipPath id="clip0_185_6812">
<rect width="15.3481" height="46.0444" fill="white" transform="translate(18.5635) rotate(23.7766)"/>
</clipPath>
</defs>
</svg>
