<svg width="19" height="18" viewBox="0 0 19 18" fill="none" xmlns="http://www.w3.org/2000/svg">
<g clip-path="url(#clip0_185_6914)">
<path d="M5.30056 8.69995C5.13438 8.69995 4.96819 8.70895 4.80292 8.72664C2.87962 8.93332 1.04329 10.7622 0.829714 12.6861C0.54565 15.1547 2.3169 17.3861 4.78555 17.6702C5.79191 17.7859 6.80758 17.5586 7.66873 17.0252C8.10489 16.7415 8.60249 16.5666 9.12024 16.5153C9.24501 16.5042 9.37161 16.4988 9.5 16.4988C9.62178 16.4988 9.74265 16.503 9.86236 16.5117C10.3879 16.5612 10.8936 16.7379 11.3357 17.0264C13.4504 18.3316 16.2226 17.6753 17.5277 15.5606C18.0583 14.7009 18.2842 13.6876 18.1687 12.6843C17.9555 10.7618 16.1188 8.93332 14.1955 8.72664C14.0308 8.70895 13.8652 8.69995 13.6994 8.69995H5.30056Z" fill="#FFD33F"/>
<path d="M11.5981 14.0979C12.0951 14.0979 12.498 13.6951 12.498 13.1981C12.498 12.7011 12.0951 12.2982 11.5981 12.2982C11.1011 12.2982 10.6982 12.7011 10.6982 13.1981C10.6982 13.6951 11.1011 14.0979 11.5981 14.0979Z" fill="#EA3836"/>
<path d="M17.3251 10.6403C13.7148 14.6864 5.58385 16.1922 2.4082 16.6394C3.89268 17.8944 6.01698 18.0495 7.66796 17.0237C8.10411 16.7399 8.60172 16.565 9.11946 16.5137C9.24483 16.5038 9.37203 16.4987 9.5001 16.4987C9.62189 16.4987 9.74275 16.5029 9.86246 16.5116C10.388 16.5611 10.8937 16.7378 11.3358 17.0264C13.4505 18.3315 16.2227 17.6752 17.5278 15.5605C18.0585 14.7008 18.2843 13.6876 18.1688 12.6842C18.0722 11.9406 17.781 11.2357 17.3251 10.6403Z" fill="#FFAC3E"/>
<path d="M4.70095 11.0996H5.90077V12.5994H7.40058V13.7992H5.90077V15.299H4.70095V13.7992H3.20117V12.5994H4.70095V11.0996Z" fill="#383856"/>
<path d="M13.6977 12.2981C14.1947 12.2981 14.5976 11.8953 14.5976 11.3983C14.5976 10.9013 14.1947 10.4984 13.6977 10.4984C13.2007 10.4984 12.7979 10.9013 12.7979 11.3983C12.7979 11.8953 13.2007 12.2981 13.6977 12.2981Z" fill="#91CECE"/>
<path d="M13.6977 15.8976C14.1947 15.8976 14.5976 15.4947 14.5976 14.9978C14.5976 14.5008 14.1947 14.0979 13.6977 14.0979C13.2007 14.0979 12.7979 14.5008 12.7979 14.9978C12.7979 15.4947 13.2007 15.8976 13.6977 15.8976Z" fill="#91CECE"/>
<path d="M15.7983 14.0979C16.2953 14.0979 16.6982 13.6951 16.6982 13.1981C16.6982 12.7011 16.2953 12.2982 15.7983 12.2982C15.3013 12.2982 14.8984 12.7011 14.8984 13.1981C14.8984 13.6951 15.3013 14.0979 15.7983 14.0979Z" fill="#EA3836"/>
<path d="M8.90039 8.69985V7.5H10.1002V8.69985" fill="#874D1B"/>
<path d="M12.0662 12.4332C12.1532 12.5733 12.1994 12.7347 12.2 12.8994C12.2 13.3964 11.7971 13.7992 11.3001 13.7992C11.1355 13.7986 10.9741 13.7524 10.834 13.6655C11.0901 14.0896 11.6421 14.2258 12.0662 13.9696C12.4904 13.7134 12.6265 13.1615 12.3704 12.7374C12.2954 12.6129 12.1907 12.5085 12.0662 12.4332Z" fill="#D62121"/>
<path d="M14.1658 10.6334C14.2528 10.7735 14.299 10.9349 14.2996 11.0996C14.2996 11.5966 13.8967 11.9994 13.3997 11.9994C13.2351 11.9988 13.0737 11.9526 12.9336 11.8657C13.1897 12.2898 13.7417 12.426 14.1658 12.1698C14.59 11.9136 14.7262 11.3617 14.47 10.9376C14.395 10.8131 14.2903 10.7087 14.1658 10.6334Z" fill="#83B2B7"/>
<path d="M16.2654 12.4332C16.3524 12.5733 16.3986 12.7347 16.3992 12.8994C16.3992 13.3964 15.9963 13.7992 15.4993 13.7992C15.3347 13.7986 15.1733 13.7524 15.0332 13.6655C15.2894 14.0896 15.8413 14.2258 16.2654 13.9696C16.6896 13.7134 16.8258 13.1615 16.5696 12.7374C16.4946 12.6129 16.3899 12.5085 16.2654 12.4332Z" fill="#D62121"/>
<path d="M14.1658 14.2329C14.2528 14.373 14.299 14.5344 14.2996 14.699C14.2996 15.1961 13.8967 15.5989 13.3997 15.5989C13.2351 15.5983 13.0737 15.5521 12.9336 15.4651C13.1897 15.8893 13.7417 16.0255 14.1658 15.7693C14.59 15.5131 14.7262 14.9612 14.47 14.537C14.395 14.4126 14.2903 14.3082 14.1658 14.2329Z" fill="#83B2B7"/>
<path d="M3.20117 13.5061V13.7992H4.70095V15.299H5.90077V13.7992H7.40054V12.5994H6.89991C5.7151 13.4254 3.90848 13.5082 3.20117 13.5061Z" fill="#202033"/>
<path d="M8.90039 8.61796V8.69984H10.1002V7.71448C9.81435 8.14314 9.39142 8.46169 8.90039 8.61796Z" fill="#6B3713"/>
<path d="M7.40073 12.2993H6.20091V11.0995C6.20091 10.9339 6.06654 10.7996 5.90095 10.7996H4.70113C4.53554 10.7996 4.40118 10.9339 4.40118 11.0995V12.2993H3.20132C3.03574 12.2993 2.90137 12.4337 2.90137 12.5993V13.7991C2.90137 13.9647 3.03574 14.0991 3.20132 14.0991H4.40114V15.2989C4.40114 15.4645 4.53551 15.5988 4.7011 15.5988H5.90092C6.0665 15.5988 6.20087 15.4645 6.20087 15.2989V14.0991H7.40069C7.56628 14.0991 7.70064 13.9647 7.70064 13.7991V12.5993C7.70068 12.4337 7.56628 12.2993 7.40073 12.2993ZM7.10077 13.4992H5.90095C5.73536 13.4992 5.601 13.6336 5.601 13.7991V14.999H5.00109V13.7991C5.00109 13.6336 4.86672 13.4992 4.70113 13.4992H3.50128V12.8993H4.7011C4.86668 12.8993 5.00105 12.7649 5.00105 12.5993V11.3995H5.60096V12.5993C5.60096 12.7649 5.73533 12.8993 5.90092 12.8993H7.10074V13.4992H7.10077Z" fill="black"/>
<path d="M13.6998 12.5993C14.3624 12.5993 14.8996 12.0621 14.8996 11.3995C14.8996 10.7369 14.3624 10.1997 13.6998 10.1997C13.0372 10.1997 12.5 10.7369 12.5 11.3995C12.5 12.0621 13.0372 12.5993 13.6998 12.5993ZM13.6998 10.7996C14.0313 10.7996 14.2997 11.0681 14.2997 11.3995C14.2997 11.731 14.0313 11.9994 13.6998 11.9994C13.3684 11.9994 13.0999 11.731 13.0999 11.3995C13.0999 11.0681 13.3687 10.7996 13.6998 10.7996Z" fill="black"/>
<path d="M13.6998 13.7992C13.0372 13.7992 12.5 14.3364 12.5 14.999C12.5 15.6616 13.0372 16.1988 13.6998 16.1988C14.3624 16.1988 14.8996 15.6616 14.8996 14.999C14.8996 14.3364 14.3624 13.7992 13.6998 13.7992ZM13.6998 15.5989C13.3684 15.5989 13.0999 15.3305 13.0999 14.999C13.0999 14.6676 13.3684 14.3991 13.6998 14.3991C14.0313 14.3991 14.2997 14.6676 14.2997 14.999C14.2997 15.3305 14.0313 15.5989 13.6998 15.5989Z" fill="black"/>
<path d="M11.5992 11.9994C10.9366 11.9994 10.3994 12.5366 10.3994 13.1992C10.3994 13.8618 10.9366 14.399 11.5992 14.399C12.2618 14.399 12.7991 13.8618 12.7991 13.1992C12.7991 12.5366 12.2618 11.9994 11.5992 11.9994ZM11.5992 13.7992C11.2678 13.7992 10.9993 13.5307 10.9993 13.1992C10.9993 12.8678 11.2678 12.5993 11.5992 12.5993C11.9307 12.5993 12.1991 12.8678 12.1991 13.1992C12.1991 13.5307 11.9307 13.7992 11.5992 13.7992Z" fill="black"/>
<path d="M15.7994 11.9994C15.1368 11.9994 14.5996 12.5366 14.5996 13.1992C14.5996 13.8618 15.1368 14.399 15.7994 14.399C16.462 14.399 16.9992 13.8618 16.9992 13.1992C16.9992 12.5366 16.4621 11.9994 15.7994 11.9994ZM15.7994 13.7992C15.468 13.7992 15.1995 13.5307 15.1995 13.1992C15.1995 12.8678 15.468 12.5993 15.7994 12.5993C16.1309 12.5993 16.3993 12.8678 16.3993 13.1992C16.3993 13.5307 16.1309 13.7992 15.7994 13.7992Z" fill="black"/>
<path d="M14.2285 8.43014C14.0527 8.41063 13.8761 8.40075 13.6994 8.40015H10.3998V7.20033H9.79995V6.60042C9.79995 5.93783 9.26272 5.4006 8.60013 5.4006H7.10036C6.7689 5.4006 6.50045 5.13215 6.50045 4.80069C6.50045 4.46924 6.7689 4.20078 7.10036 4.20078H11.8997C12.5623 4.20078 13.0995 3.66356 13.0995 3.00096C13.0995 2.33837 12.5623 1.80114 11.8997 1.80114H10.3999C10.0684 1.80114 9.79999 1.53269 9.79999 1.20123V0.00134277H9.20008V1.20116C9.20008 1.86376 9.7373 2.40098 10.3999 2.40098H11.8997C12.2311 2.40098 12.4996 2.66944 12.4996 3.00089C12.4996 3.33235 12.2311 3.6008 11.8997 3.6008H7.10036C6.43776 3.6008 5.90054 4.13803 5.90054 4.80062C5.90054 5.46321 6.43776 6.00044 7.10036 6.00044H8.60013C8.93159 6.00044 9.20004 6.26889 9.20004 6.60035V7.20026H8.60013V8.40008H5.30059C5.12361 8.4004 4.94664 8.41059 4.77085 8.43007C2.70119 8.65212 0.761048 10.5859 0.531582 12.6529C0.230115 15.2862 2.12076 17.6655 4.75408 17.9666C5.82643 18.0893 6.90896 17.847 7.82655 17.2788C8.2216 17.0203 8.67333 16.8607 9.14305 16.8136C9.37523 16.7953 9.60828 16.7944 9.84045 16.8112C10.3177 16.8574 10.7766 17.0188 11.1777 17.2815C13.4324 18.6752 16.3897 17.9768 17.7833 15.7221C18.3502 14.8045 18.5917 13.7229 18.4687 12.6514C18.2387 10.5844 16.2973 8.6506 14.2285 8.43014ZM9.20004 7.8002H9.79995V8.40011H9.20004V7.8002ZM16.8295 15.9993C15.4734 17.5161 13.2246 17.8416 11.4938 16.7716C11.0106 16.457 10.4578 16.265 9.88334 16.2128C9.75674 16.2035 9.62898 16.199 9.5 16.199C9.36352 16.199 9.23003 16.2047 9.09566 16.2153C8.52996 16.2695 7.98581 16.4594 7.50947 16.769C5.53726 17.9892 2.94922 17.3797 1.72869 15.4075C1.23197 14.6045 1.02019 13.6578 1.12787 12.7195C1.32524 10.9432 3.05719 9.21785 4.83533 9.02678C4.98981 9.00938 5.1452 9.00069 5.30056 9.00009H13.6994C13.8548 9.00009 14.0101 9.0085 14.1646 9.02499C15.9425 9.21606 17.6741 10.9414 17.8721 12.7177C18.0137 13.9106 17.6336 15.1066 16.8295 15.9993Z" fill="white"/>
</g>
<defs>
<clipPath id="clip0_185_6914">
<rect width="18" height="18" fill="white" transform="translate(0.5)"/>
</clipPath>
</defs>
</svg>
