<svg width="33" height="33" viewBox="0 0 33 33" fill="none" xmlns="http://www.w3.org/2000/svg">
<path d="M24.8359 21.8288H8.38288V23.8288H24.8359V21.8288ZM24.0428 12.0001L24.5027 16.0593L26.49 15.8342L26.0302 11.7749L24.0428 12.0001ZM8.71601 16.0593L9.17585 12.0001L7.18856 11.7749L6.72873 15.8342L8.71601 16.0593ZM7.3121 19.3164C8.09165 18.3988 8.57969 17.2628 8.71601 16.0593L6.72873 15.8342C6.63653 16.6481 6.30696 17.4105 5.78793 18.0213L7.3121 19.3164ZM24.5027 16.0593C24.6391 17.2628 25.1271 18.3988 25.9066 19.3164L27.4308 18.0213C26.9118 17.4105 26.5822 16.6481 26.49 15.8342L24.5027 16.0593ZM8.38288 21.8288C7.20048 21.8288 6.44837 20.3329 7.3121 19.3164L5.78793 18.0213C3.8959 20.2484 5.3804 23.8288 8.38288 23.8288V21.8288ZM24.8359 23.8288C27.8383 23.8288 29.3228 20.2484 27.4308 18.0213L25.9066 19.3164C26.7703 20.3329 26.0183 21.8288 24.8359 21.8288V23.8288ZM26.0302 11.7749C25.4766 6.88842 21.4466 3.16211 16.6094 3.16211V5.16211C20.383 5.16211 23.5986 8.07808 24.0428 12.0001L26.0302 11.7749ZM9.17585 12.0001C9.62013 8.07808 12.8357 5.16211 16.6094 5.16211V3.16211C11.7722 3.16211 7.7421 6.88842 7.18856 11.7749L9.17585 12.0001Z" fill="white"/>
<path d="M21.546 25.8463C21.7399 25.3291 21.4778 24.7529 20.9606 24.559C20.4434 24.3651 19.8671 24.6273 19.6732 25.1445L21.546 25.8463ZM13.546 25.1445C13.3522 24.6273 12.7759 24.3651 12.2587 24.559C11.7416 24.7529 11.4794 25.3291 11.6732 25.8463L13.546 25.1445ZM19.6732 25.1445C19.243 26.2926 18.0558 27.1621 16.6096 27.1621V29.1621C18.857 29.1621 20.8118 27.8054 21.546 25.8463L19.6732 25.1445ZM16.6096 27.1621C15.1635 27.1621 13.9763 26.2926 13.546 25.1445L11.6732 25.8463C12.4074 27.8054 14.3623 29.1621 16.6096 29.1621V27.1621Z" fill="white"/>
</svg>
