<svg width="16" height="16" viewBox="0 0 16 16" fill="none" xmlns="http://www.w3.org/2000/svg">
<g clip-path="url(#clip0_185_6952)">
<path d="M14.4457 11.5076C13.4684 7.84547 10.595 4.32434 10.595 4.32434H7.80687H5.01874C5.01874 4.32434 2.14537 7.84547 1.16805 11.5076C0.756835 13.0484 1.67421 14.6295 3.33627 15.1894C4.3519 15.5316 5.78508 15.7744 7.8069 15.7651C9.82868 15.7744 11.2619 15.5316 12.2775 15.1894C13.9395 14.6295 14.8569 13.0484 14.4457 11.5076Z" fill="#AC7762"/>
<path d="M12.2774 15.1894C11.2935 15.521 9.91805 15.759 7.99512 15.7653C9.3828 15.6814 10.442 15.4687 11.2504 15.1962C13.0037 14.6056 13.9716 12.9377 13.5377 11.3122C12.7535 8.37384 10.8399 5.52184 9.95527 4.32437L10.595 4.32434C10.595 4.32434 13.4683 7.8455 14.4456 11.5077C14.8569 13.0484 13.9394 14.6294 12.2774 15.1894Z" fill="#A06955"/>
<path d="M10.6149 2.81201H4.99902V4.3242H10.6149V2.81201Z" fill="#FFCD43"/>
<path d="M10.6145 2.81201H9.95508V4.3242H10.6145V2.81201Z" fill="#FFAF45"/>
<path d="M11.3831 0.756602C11.4282 0.636071 11.3674 0.50054 11.2464 0.456571C10.9403 0.345258 10.5716 0.385571 10.2482 0.454696C9.97353 0.513446 9.69525 0.592852 9.41759 0.612915H9.17287C9.1269 0.60929 9.081 0.603727 9.03515 0.595133C8.61287 0.51629 8.22956 0.217571 7.80628 0.235383C7.383 0.217571 6.99968 0.516321 6.5774 0.595133C6.53156 0.603696 6.48565 0.609258 6.43968 0.612915H6.19497C5.91734 0.592852 5.63903 0.513446 5.36431 0.454696C5.03984 0.385321 4.67193 0.35754 4.36612 0.475102C4.24709 0.520883 4.1879 0.654883 4.23275 0.774258L4.99828 2.81216H7.80612H10.614L11.3831 0.756602Z" fill="#AC7762"/>
<path d="M11.3835 0.756562L10.6145 2.81212H9.95508L10.8454 0.431843C10.8507 0.417468 10.8548 0.402749 10.8576 0.388062C10.9927 0.391812 11.1247 0.412155 11.2467 0.456562C11.3678 0.500655 11.4285 0.636124 11.3835 0.756562Z" fill="#A06955"/>
<path d="M14.3824 7.99612C14.6847 7.99612 14.9298 7.75102 14.9298 7.44868C14.9298 7.14634 14.6847 6.90125 14.3824 6.90125C14.0801 6.90125 13.835 7.14634 13.835 7.44868C13.835 7.75102 14.0801 7.99612 14.3824 7.99612Z" fill="#FFCD43"/>
<path d="M14.9299 7.44853C14.9299 7.75087 14.6849 7.996 14.3825 7.996C14.1221 7.996 13.9043 7.81431 13.8486 7.57084C13.9455 7.65747 14.0733 7.71019 14.2134 7.71019C14.5158 7.71019 14.7609 7.46509 14.7609 7.16272C14.7609 7.12072 14.7562 7.07966 14.7473 7.04041C14.8594 7.14069 14.9299 7.28634 14.9299 7.44853Z" fill="#FFAF45"/>
<path d="M14.1881 4.5823C14.4904 4.5823 14.7355 4.33721 14.7355 4.03486C14.7355 3.73252 14.4904 3.48743 14.1881 3.48743C13.8857 3.48743 13.6406 3.73252 13.6406 4.03486C13.6406 4.33721 13.8857 4.5823 14.1881 4.5823Z" fill="#FFCD43"/>
<path d="M14.7356 4.03496C14.7356 4.3373 14.4905 4.58242 14.1881 4.58242C13.9278 4.58242 13.71 4.40074 13.6543 4.15727C13.7511 4.24389 13.879 4.29661 14.0191 4.29661C14.3215 4.29661 14.5666 4.05152 14.5666 3.74914C14.5666 3.70714 14.5619 3.66608 14.553 3.62683C14.6651 3.72705 14.7356 3.87271 14.7356 4.03496Z" fill="#FFAF45"/>
<path d="M7.70272 15.5308C7.70078 15.5307 7.69741 15.5308 7.69472 15.5308C5.96253 15.5308 4.52134 15.3412 3.41112 14.9671C2.66281 14.715 2.04697 14.2286 1.677 13.5977C1.31184 12.9749 1.21159 12.2541 1.39466 11.5681C1.75331 10.2243 2.41012 8.74677 3.34675 7.17661L3.44587 7.01233C3.513 6.90152 3.47759 6.75727 3.36675 6.69011C3.25594 6.62299 3.11169 6.65836 3.0445 6.76924L2.94378 6.93621C1.98484 8.54367 1.31112 10.0614 0.94125 11.4472C0.496906 13.1121 1.49431 14.8166 3.26125 15.4119C4.41991 15.8022 5.91137 16 7.69472 16C7.69734 16 7.70016 16 7.70278 16C7.83234 16 7.93734 15.895 7.93731 15.7654C7.93731 15.6358 7.83225 15.5308 7.70272 15.5308Z" fill="white"/>
<path d="M13.6004 7.44851C13.6004 7.87973 13.9512 8.23054 14.3825 8.23054C14.8137 8.23054 15.1645 7.8797 15.1645 7.44851C15.1645 7.02786 14.8307 6.68389 14.414 6.66726C14.0972 5.60607 13.325 4.82432 12.1717 4.40157C12.0759 4.36648 11.9813 4.33526 11.8885 4.30736C12.3521 4.2402 12.9032 4.19804 13.4365 4.24801C13.5295 4.57595 13.8314 4.81695 14.1888 4.81695C14.62 4.81695 14.9708 4.4661 14.9708 4.03489C14.9708 3.60367 14.62 3.25282 14.1888 3.25282C13.8476 3.25282 13.5569 3.47254 13.4503 3.77782C12.3982 3.68511 11.3192 3.91464 10.8497 4.03395V2.85448L11.6037 0.83873C11.6479 0.720699 11.6431 0.592637 11.5904 0.478199C11.538 0.364605 11.4447 0.278605 11.3275 0.236012C11.03 0.127762 10.6717 0.124355 10.2001 0.22523C10.1299 0.24023 10.0594 0.256574 9.98881 0.272949C9.78734 0.319699 9.5969 0.363855 9.40978 0.378262H9.18337C9.14575 0.375043 9.11156 0.370543 9.07915 0.364512C8.92853 0.336387 8.77656 0.272762 8.61572 0.205418C8.36368 0.0998866 8.10331 -0.00905088 7.80728 0.000605365C7.51087 -0.00911338 7.25084 0.0998866 6.99878 0.205418C6.8379 0.272762 6.686 0.336387 6.53537 0.364512C6.50297 0.370543 6.46878 0.375074 6.43115 0.378262H6.20478C6.01765 0.363887 5.82715 0.319668 5.62568 0.272918C5.55509 0.256543 5.48465 0.24023 5.41447 0.225199C4.96628 0.129355 4.58559 0.13973 4.28303 0.256043C4.04475 0.347605 3.92415 0.617074 4.01418 0.856699L4.76475 2.85464V4.26679C4.61822 4.45245 4.26372 4.9127 3.81509 5.57173C3.74222 5.67885 3.7699 5.82476 3.877 5.8977C3.98418 5.97064 4.13003 5.94292 4.203 5.83579C4.63825 5.19639 4.9895 4.74004 5.13212 4.55892H10.4821C10.9221 5.1192 13.3502 8.31107 14.2194 11.5681C14.4024 12.254 14.3022 12.9748 13.937 13.5976C13.5671 14.2286 12.9512 14.7149 12.2029 14.967C11.3601 15.251 10.3199 15.4298 9.11131 15.4984C8.98193 15.5057 8.883 15.6165 8.89037 15.7459C8.89747 15.8707 9.00093 15.9672 9.1244 15.9672C9.1289 15.9672 9.13337 15.9671 9.1379 15.9668C10.3885 15.8959 11.4701 15.7091 12.3527 15.4117C14.1197 14.8164 15.1171 13.112 14.6727 11.4471C14.1603 9.52701 13.1284 7.65236 12.3529 6.41782C11.8553 5.62567 11.4042 4.99748 11.1132 4.60979C11.3724 4.65214 11.6851 4.72298 12.0102 4.84214C13.0284 5.21535 13.6839 5.87051 13.9611 6.79023C13.7444 6.92942 13.6004 7.17239 13.6004 7.44851ZM14.1888 3.72204C14.3613 3.72204 14.5016 3.86239 14.5016 4.03486C14.5016 4.20736 14.3613 4.34767 14.1888 4.34767C14.0163 4.34767 13.876 4.20732 13.876 4.03486C13.876 3.86239 14.0163 3.72204 14.1888 3.72204ZM10.3805 4.08964H5.234V3.04667H10.3805V4.08964ZM10.4523 2.57742H5.16187L4.45393 0.693012C4.6699 0.610887 4.95997 0.607855 5.31631 0.684043C5.38387 0.69848 5.45165 0.71423 5.51962 0.730012C5.73259 0.779418 5.95281 0.83048 6.17909 0.846855C6.18475 0.847262 6.19034 0.84748 6.19603 0.84748H6.44072C6.44684 0.84748 6.45303 0.84723 6.45915 0.846762C6.51703 0.842199 6.57012 0.835324 6.62143 0.82573C6.82115 0.78848 7.00359 0.712074 7.18003 0.638199C7.39697 0.547355 7.60134 0.461324 7.7974 0.46973C7.804 0.470012 7.81053 0.470012 7.81715 0.46973C8.01181 0.461449 8.2175 0.547324 8.4345 0.638199C8.61097 0.712043 8.7934 0.788449 8.99309 0.82573C9.04447 0.835324 9.09753 0.842199 9.15537 0.846762C9.16147 0.84723 9.16765 0.84748 9.17381 0.84748H9.41853C9.42418 0.84748 9.42978 0.847293 9.43547 0.846855C9.66172 0.83048 9.8819 0.779418 10.0949 0.730012C10.1628 0.71423 10.2307 0.698512 10.2982 0.684043C10.6726 0.603949 10.9558 0.60123 11.1638 0.67573L10.4523 2.57742ZM14.3825 7.1357C14.555 7.1357 14.6953 7.27604 14.6953 7.44851C14.6953 7.62098 14.5549 7.76132 14.3825 7.76132C14.21 7.76132 14.0697 7.62098 14.0697 7.44851C14.0697 7.27601 14.21 7.1357 14.3825 7.1357Z" fill="white"/>
</g>
<defs>
<clipPath id="clip0_185_6952">
<rect width="16" height="16" fill="white"/>
</clipPath>
</defs>
</svg>
