<svg width="21" height="20" viewBox="0 0 21 20" fill="none" xmlns="http://www.w3.org/2000/svg">
<path d="M20.1505 17.9768L16.3067 14.133C17.4716 12.608 18.1106 10.7583 18.1108 8.80638C18.1108 6.45417 17.1947 4.2426 15.5312 2.57935C13.8679 0.916114 11.6566 0 9.30414 0C6.95193 0 4.74035 0.916114 3.07711 2.57935C-0.356433 6.01319 -0.356433 11.6002 3.07711 15.0334C4.74035 16.6969 6.95193 17.6131 9.30414 17.6131C11.256 17.6128 13.1057 16.9739 14.6307 15.809L18.4745 19.6527C18.7057 19.8842 19.0093 20 19.3125 20C19.6158 20 19.9193 19.8842 20.1505 19.6527C20.6135 19.1901 20.6135 18.4395 20.1505 17.9768ZM4.75308 13.3574C2.24376 10.8481 2.24404 6.76495 4.75308 4.25533C5.96869 3.04002 7.58505 2.37044 9.30414 2.37044C11.0235 2.37044 12.6396 3.04002 13.8552 4.25533C15.0708 5.47093 15.7404 7.08729 15.7404 8.80638C15.7404 10.5258 15.0708 12.1418 13.8552 13.3574C12.6396 14.573 11.0235 15.2426 9.30414 15.2426C7.58505 15.2426 5.96869 14.573 4.75308 13.3574Z" fill="white"/>
</svg>
