<svg width="21" height="20" viewBox="0 0 21 20" fill="none" xmlns="http://www.w3.org/2000/svg">
<path d="M18.7422 8.24219H12.2578V1.75781C12.2578 0.786992 11.4708 0 10.5 0C9.52918 0 8.74219 0.786992 8.74219 1.75781V8.24219H2.25781C1.28699 8.24219 0.5 9.02918 0.5 10C0.5 10.9708 1.28699 11.7578 2.25781 11.7578H8.74219V18.2422C8.74219 19.213 9.52918 20 10.5 20C11.4708 20 12.2578 19.213 12.2578 18.2422V11.7578H18.7422C19.713 11.7578 20.5 10.9708 20.5 10C20.5 9.02918 19.713 8.24219 18.7422 8.24219Z" fill="white"/>
</svg>
