<svg width="26" height="26" viewBox="0 0 26 26" fill="none" xmlns="http://www.w3.org/2000/svg">
<path d="M13.4961 13.8335C12.5072 13.8335 11.5405 13.5402 10.7182 12.9908C9.896 12.4414 9.25514 11.6605 8.8767 10.7469C8.49826 9.83328 8.39924 8.82795 8.59217 7.85804C8.7851 6.88814 9.2613 5.99723 9.96056 5.29796C10.6598 4.5987 11.5507 4.1225 12.5206 3.92957C13.4905 3.73665 14.4959 3.83566 15.4095 4.2141C16.3231 4.59254 17.104 5.2334 17.6534 6.05565C18.2028 6.87789 18.4961 7.84459 18.4961 8.83349C18.4961 10.1596 17.9693 11.4313 17.0316 12.369C16.0939 13.3067 14.8222 13.8335 13.4961 13.8335ZM13.4961 5.50016C12.8368 5.50016 12.1924 5.69566 11.6442 6.06193C11.096 6.4282 10.6688 6.9488 10.4165 7.55788C10.1642 8.16697 10.0982 8.83719 10.2268 9.48379C10.3554 10.1304 10.6729 10.7243 11.1391 11.1905C11.6052 11.6567 12.1992 11.9742 12.8458 12.1028C13.4924 12.2314 14.1626 12.1654 14.7717 11.9131C15.3808 11.6608 15.9014 11.2336 16.2677 10.6854C16.6339 10.1372 16.8294 9.49276 16.8294 8.83349C16.8294 7.94944 16.4782 7.10159 15.8531 6.47647C15.228 5.85135 14.3801 5.50016 13.4961 5.50016Z" fill="white"/>
<path d="M13.496 25.4999C11.648 25.4987 9.82329 25.0877 8.15321 24.2967C6.48314 23.5056 5.00924 22.354 3.83763 20.9249L3.4043 20.3916L3.83763 19.8666C5.01023 18.4394 6.48456 17.2898 8.15458 16.5004C9.8246 15.7111 11.6488 15.3018 13.496 15.3018C15.3431 15.3018 17.1673 15.7111 18.8373 16.5004C20.5073 17.2898 21.9817 18.4394 23.1543 19.8666L23.5876 20.3916L23.1543 20.9249C21.9827 22.354 20.5088 23.5056 18.8387 24.2967C17.1686 25.0877 15.3439 25.4987 13.496 25.4999ZM5.58763 20.3999C6.60116 21.4849 7.8269 22.35 9.18876 22.9415C10.5506 23.533 12.0195 23.8382 13.5043 23.8382C14.989 23.8382 16.4579 23.533 17.8198 22.9415C19.1817 22.35 20.4074 21.4849 21.4209 20.3999C20.4074 19.3149 19.1817 18.4498 17.8198 17.8584C16.4579 17.2669 14.989 16.9617 13.5043 16.9617C12.0195 16.9617 10.5506 17.2669 9.18876 17.8584C7.8269 18.4498 6.60116 19.3149 5.58763 20.3999Z" fill="white"/>
<path d="M13.4966 25.5C10.6572 25.5019 7.90182 24.537 5.68386 22.7643C3.46591 20.9915 1.91759 18.5164 1.29374 15.7464C0.669889 12.9764 1.00769 10.0766 2.25153 7.52413C3.49538 4.97169 5.57115 2.91879 8.13721 1.70329C10.7033 0.487788 13.6067 0.182131 16.3696 0.836623C19.1325 1.49111 21.5903 3.06675 23.3384 5.30421C25.0865 7.54167 26.0208 10.3076 25.9874 13.1468C25.9541 15.986 24.9551 18.7292 23.1549 20.925C21.9833 22.3541 20.5094 23.5056 18.8394 24.2967C17.1693 25.0878 15.3446 25.4988 13.4966 25.5ZM13.4966 2.16667C11.354 2.16667 9.25947 2.80204 7.47794 3.99242C5.69641 5.1828 4.30788 6.87473 3.48793 8.85426C2.66798 10.8338 2.45344 13.012 2.87145 15.1135C3.28946 17.2149 4.32123 19.1452 5.8363 20.6603C7.35137 22.1754 9.28168 23.2072 11.3831 23.6252C13.4846 24.0432 15.6628 23.8286 17.6423 23.0087C19.6219 22.1887 21.3138 20.8002 22.5042 19.0187C23.6946 17.2371 24.3299 15.1426 24.3299 13C24.3299 10.1268 23.1886 7.37132 21.1569 5.33968C19.1253 3.30804 16.3698 2.16667 13.4966 2.16667Z" fill="white"/>
<path d="M4.48047 20.3999C4.48047 20.3999 12.8721 29.7749 21.4138 21.3332L22.5138 20.3999C22.5138 20.3999 15.3805 12.9999 8.1388 17.4416L4.48047 20.3999Z" fill="white"/>
<path d="M13.4967 12.9998C15.7979 12.9998 17.6634 11.1343 17.6634 8.83317C17.6634 6.53198 15.7979 4.6665 13.4967 4.6665C11.1956 4.6665 9.33008 6.53198 9.33008 8.83317C9.33008 11.1343 11.1956 12.9998 13.4967 12.9998Z" fill="white"/>
</svg>
